<?xml version="1.0" encoding="UTF-8"?>
<svg id="Ebene_1" xmlns="http://www.w3.org/2000/svg" xmlns:xlink="http://www.w3.org/1999/xlink" version="1.1" viewBox="0 0 744 230.5">
  <!-- Generator: Adobe Illustrator 30.2.1, SVG Export Plug-In . SVG Version: 2.1.1 Build 1)  -->
  <defs>
    <style>
      .st0 {
        fill: none;
      }

      .st1 {
        fill: #8c9091;
      }

      .st2 {
        isolation: isolate;
      }

      .st3 {
        fill: #ff5100;
      }

      .st4 {
        clip-path: url(#clippath);
      }
    </style>
    <clipPath id="clippath">
      <rect class="st0" x="2.8" y="1.4" width="738.3" height="163"/>
    </clipPath>
  </defs>
  <g id="Logo">
    <g class="st4">
      <g>
        <path class="st3" d="M37.1,130.4c1.5,2.6,3.4,4.8,5.8,6.4,2.4,1.7,5.1,2.9,8.2,3.7s6.3,1.2,9.6,1.2,4.9-.3,7.5-.9c2.6-.5,5-1.4,7.1-2.6,2.1-1.2,3.9-2.8,5.4-4.7,1.4-2,2.1-4.5,2.1-7.5,0-5.1-3.3-8.8-10.1-11.4-6.7-2.5-16.1-5.1-28.1-7.6-4.9-1.1-9.7-2.4-14.4-3.9-4.7-1.5-8.8-3.5-12.5-5.9-3.6-2.5-6.6-5.5-8.8-9.3-2.2-3.7-3.3-8.3-3.3-13.6,0-7.9,1.5-14.4,4.6-19.5,3.1-5.1,7.2-9,12.2-12,5.1-2.9,10.8-5,17.1-6.2,6.3-1.2,12.8-1.8,19.5-1.8s13.1.6,19.3,1.9c6.3,1.3,11.8,3.4,16.7,6.4,4.9,3,9,7,12.2,12,3.2,5,5.2,11.3,5.8,18.9h-32c-.5-6.5-2.9-10.9-7.4-13.2-4.4-2.3-9.6-3.4-15.6-3.4s-4,.1-6.2.4c-2.2.2-4.2.8-6,1.5-1.8.8-3.4,1.9-4.6,3.4-1.3,1.5-1.9,3.5-1.9,6s1.1,5.5,3.3,7.4c2.2,1.9,5.1,3.4,8.7,4.6s7.6,2.2,12.2,3.2c4.6.9,9.2,2,14,3.1,4.9,1.1,9.7,2.4,14.3,4,4.7,1.6,8.8,3.7,12.5,6.3,3.6,2.6,6.6,5.8,8.8,9.7,2.2,3.9,3.3,8.7,3.3,14.3,0,8.1-1.6,14.8-4.9,20.3-3.2,5.5-7.5,9.9-12.7,13.2-5.2,3.3-11.2,5.7-17.9,7-6.7,1.4-13.6,2-20.5,2s-14.1-.7-20.9-2.1c-6.8-1.4-12.9-3.8-18.1-7.1-5.3-3.3-9.6-7.7-13-13.2-3.4-5.4-5.3-12.3-5.6-20.5h32c0,3.6.7,6.8,2.2,9.4"/>
        <path class="st3" d="M219.2,160.9v-17.1h-.7c-4.3,7.1-9.8,12.3-16.6,15.4-6.8,3.2-13.8,4.8-20.9,4.8s-16.4-1.2-22.2-3.6-10.3-5.7-13.6-10.1c-3.3-4.3-5.7-9.6-7-15.9-1.4-6.2-2-13.2-2-20.8V38.2h33.7v69.3c0,10.1,1.6,17.7,4.7,22.7,3.2,5,8.8,7.5,16.8,7.5s15.8-2.7,19.9-8.2c4.1-5.4,6.2-14.4,6.2-26.9V38.2h33.7v122.7h-32.1Z"/>
        <path class="st3" d="M305.2,130.4c1.5,2.6,3.5,4.8,5.8,6.4s5.1,2.9,8.2,3.7c3.1.8,6.3,1.2,9.6,1.2s4.9-.3,7.5-.9c2.6-.5,5-1.4,7.1-2.6,2.1-1.2,3.9-2.8,5.3-4.7,1.4-2,2.1-4.5,2.1-7.5,0-5.1-3.4-8.8-10.1-11.4-6.7-2.5-16.1-5.1-28.1-7.6-4.9-1.1-9.7-2.4-14.4-3.9-4.7-1.5-8.8-3.5-12.5-5.9-3.6-2.5-6.6-5.5-8.8-9.3-2.2-3.7-3.3-8.3-3.3-13.6,0-7.9,1.5-14.4,4.6-19.5,3.1-5.1,7.1-9,12.2-12,5.1-2.9,10.8-5,17.1-6.2,6.3-1.2,12.8-1.8,19.4-1.8s13.1.6,19.3,1.9c6.2,1.3,11.8,3.4,16.7,6.4,4.9,3,9,7,12.2,12,3.2,5,5.2,11.3,5.8,18.9h-32c-.5-6.5-2.9-10.9-7.4-13.2-4.4-2.3-9.6-3.4-15.7-3.4s-4,.1-6.2.4c-2.2.2-4.2.8-6,1.5-1.8.8-3.4,1.9-4.6,3.4-1.3,1.5-1.9,3.5-1.9,6s1.1,5.5,3.3,7.4c2.2,1.9,5.1,3.4,8.7,4.6,3.6,1.2,7.6,2.2,12.2,3.2,4.6.9,9.3,2,14,3.1,4.9,1.1,9.7,2.4,14.4,4,4.7,1.6,8.8,3.7,12.5,6.3,3.6,2.6,6.6,5.8,8.8,9.7,2.2,3.9,3.3,8.7,3.3,14.3,0,8.1-1.6,14.8-4.9,20.3-3.2,5.5-7.5,9.9-12.7,13.2-5.2,3.3-11.2,5.7-17.9,7-6.7,1.4-13.6,2-20.5,2s-14.1-.7-20.9-2.1c-6.8-1.4-12.9-3.8-18.1-7.1-5.3-3.3-9.7-7.7-13.1-13.2-3.4-5.4-5.3-12.3-5.6-20.5h32c0,3.6.8,6.8,2.2,9.4"/>
        <path class="st3" d="M471.6,38.2v22.5h-24.7v60.7c0,5.7.9,9.5,2.9,11.4,1.9,1.9,5.7,2.9,11.4,2.9s3.7,0,5.5-.2c1.7-.1,3.4-.4,5-.7v26.1c-2.9.5-6,.8-9.5.9-3.5.1-6.9.2-10.2.2-5.2,0-10.2-.4-14.8-1.1-4.7-.7-8.8-2.1-12.4-4.1-3.5-2.1-6.4-5-8.4-8.8-2.1-3.8-3.1-8.8-3.1-14.9V60.7h-20.4v-22.5h20.4V1.4h33.7v36.8h24.7,0Z"/>
        <path class="st1" d="M536,136.1c6.4,2.9,14.1,2.7,23-.6,6.4-2.3,11.3-5.9,14.8-10.8,3.4-4.9,5-9.3,4.8-13.2l27.9-10.2c.6,15.4-2.6,27.8-9.7,37.1-7,9.3-17.1,16.4-30.2,21.1-9.1,3.3-17.8,4.8-26.1,4.6-8.3-.2-16-2.1-23-5.6-7-3.5-13.2-8.5-18.7-14.9-5.5-6.4-9.8-14.1-13.1-23-3.1-8.6-4.7-17.2-4.5-25.6.1-8.5,1.8-16.3,5-23.7,3.2-7.3,7.9-13.9,13.9-19.6s13.5-10.2,22.2-13.4c9.8-3.6,19-4.8,27.7-3.7,8.7,1.1,16.5,4,23.5,8.7,7,4.7,13,10.7,18.1,18.1,5.1,7.4,8.9,15.7,11.6,24.8l-83.1,30.3c4.2,10.1,9.5,16.6,15.9,19.5M549.6,62.4c-5.3-2.8-11.8-2.8-19.5,0-5,1.8-8.9,4.2-11.7,7.2s-4.6,6-5.7,9.3c-1.1,3.3-1.5,6.5-1.3,9.6.2,3.1.7,5.8,1.3,8.1l51.5-18.8c-4.4-7.5-9.3-12.6-14.6-15.4"/>
        <path class="st3" d="M682.5,60.3c-5.4,0-9.9,1.2-13.5,3.7-3.6,2.5-6.6,5.6-8.9,9.5-2.3,3.9-3.9,8.1-4.9,12.8-.9,4.7-1.4,9.3-1.4,13.9s.5,8.9,1.4,13.5c.9,4.6,2.5,8.8,4.6,12.5,2.1,3.7,5,6.8,8.7,9.1,3.6,2.4,8.1,3.6,13.3,3.6,8,0,14.3-2.2,18.6-6.8,4.3-4.5,7.1-10.6,8.2-18.2h32.5c-2.2,16.3-8.5,28.7-19,37.2-10.4,8.5-23.8,12.8-40.1,12.8s-17.6-1.5-25.3-4.6c-7.7-3.1-14.2-7.4-19.6-12.9-5.4-5.5-9.6-12.1-12.6-19.8-3-7.7-4.5-16.1-4.5-25.3s1.4-18.3,4.2-26.5c2.8-8.1,6.8-15.2,12.2-21.1,5.4-5.9,11.9-10.6,19.7-13.9,7.8-3.3,16.6-5,26.6-5s14.3,1,21,2.8c6.7,1.9,12.7,4.8,18,8.7,5.3,3.9,9.6,8.7,12.9,14.5,3.3,5.8,5.2,12.6,5.7,20.5h-33c-2.2-14.1-10.5-21.1-24.9-21.1"/>
      </g>
    </g>
  </g>
  <g class="st2">
    <g class="st2">
      <path class="st1" d="M368.5,187.9c-.1-2.4-.6-4.5-1.5-6.3-.9-1.8-2.2-3.3-3.7-4.5-1.6-1.2-3.5-2.1-5.6-2.7-2.2-.6-4.6-.9-7.1-.9s-3.3.2-5.1.6-3.5,1-5.1,1.9c-1.6.9-2.8,2.2-3.8,3.7-1,1.6-1.5,3.5-1.5,5.8s.6,4.1,1.7,5.5c1.1,1.4,2.6,2.6,4.3,3.4,1.8.9,3.8,1.6,6.2,2.1,2.3.5,4.7,1,7,1.5,2.4.5,4.8,1,7.1,1.7,2.3.7,4.3,1.6,6.2,2.7,1.8,1.1,3.3,2.6,4.4,4.4,1.1,1.8,1.7,4.1,1.7,6.8s-.6,5.4-1.9,7.4c-1.3,2-2.9,3.6-4.8,4.9-1.9,1.3-4.1,2.2-6.4,2.7-2.3.6-4.6.8-6.7.8-3.3,0-6.4-.4-9.3-1.1-2.9-.7-5.4-1.9-7.6-3.5-2.2-1.6-3.9-3.7-5.1-6.2-1.2-2.5-1.8-5.6-1.8-9.2h3.5c-.2,3.1.3,5.7,1.3,7.9,1.1,2.1,2.5,3.9,4.4,5.2,1.9,1.4,4.1,2.4,6.6,3,2.5.6,5.2.9,8,.9s3.5-.2,5.4-.6c1.9-.4,3.7-1.1,5.3-2.1,1.6-1,2.9-2.3,4-3.9,1.1-1.6,1.6-3.7,1.6-6.2s-.6-4.3-1.7-5.8c-1.1-1.5-2.6-2.7-4.4-3.6-1.8-.9-3.9-1.7-6.2-2.2-2.3-.6-4.6-1.1-7.1-1.5-2.4-.5-4.7-1-7-1.7-2.3-.6-4.4-1.5-6.2-2.6-1.8-1.1-3.2-2.5-4.3-4.2-1.1-1.7-1.7-3.9-1.7-6.6s.6-5,1.7-6.9c1.1-1.9,2.6-3.5,4.4-4.7s3.9-2.1,6.1-2.6c2.3-.6,4.5-.8,6.7-.8s5.7.3,8.2,1c2.6.7,4.8,1.7,6.7,3.1,1.9,1.4,3.5,3.2,4.6,5.4,1.2,2.2,1.8,4.9,2,8h-3.5Z"/>
      <path class="st1" d="M432.5,200c0,4.1-.6,8-1.8,11.6-1.2,3.6-3,6.7-5.2,9.4-2.3,2.7-5.1,4.7-8.4,6.3-3.3,1.5-7.1,2.3-11.3,2.3s-8-.8-11.3-2.3c-3.3-1.5-6.2-3.6-8.4-6.3-2.3-2.7-4-5.8-5.2-9.4-1.2-3.6-1.8-7.5-1.8-11.6s.6-8,1.8-11.6c1.2-3.6,3-6.7,5.2-9.4s5.1-4.7,8.4-6.3c3.3-1.5,7.1-2.3,11.3-2.3s8,.8,11.3,2.3c3.3,1.5,6.1,3.6,8.4,6.3s4,5.8,5.2,9.4c1.2,3.6,1.8,7.5,1.8,11.6ZM382.4,200c0,3.6.5,7,1.6,10.3,1.1,3.2,2.6,6,4.6,8.4,2,2.4,4.4,4.3,7.3,5.7,2.9,1.4,6.2,2.1,9.9,2.1s7-.7,9.8-2.1c2.9-1.4,5.3-3.3,7.3-5.7,2-2.4,3.5-5.2,4.6-8.4,1.1-3.2,1.6-6.6,1.6-10.3s-.5-7-1.6-10.3c-1.1-3.2-2.6-6-4.6-8.4-2-2.4-4.4-4.3-7.3-5.7-2.9-1.4-6.1-2.1-9.8-2.1s-7,.7-9.9,2.1c-2.9,1.4-5.3,3.3-7.3,5.7-2,2.4-3.5,5.2-4.6,8.4-1.1,3.2-1.6,6.6-1.6,10.3Z"/>
    </g>
    <g class="st2">
      <path class="st1" d="M440,171.8h3.5v53.3h32v3h-35.4v-56.3Z"/>
    </g>
    <g class="st2">
      <path class="st1" d="M480.5,171.8v33.8c0,1.1,0,2.4.2,3.9.1,1.5.4,3,.8,4.5s1,3.1,1.8,4.6c.8,1.5,1.8,2.8,3.1,4,1.3,1.2,2.9,2.1,4.9,2.8,1.9.7,4.2,1.1,7,1.1s6.4-.5,8.7-1.5c2.3-1,4.2-2.4,5.7-4.2,1.4-1.8,2.5-4,3.1-6.6.6-2.6.9-5.5.9-8.7v-33.8h3.5v33.8c0,3.4-.4,6.5-1.1,9.4-.7,2.9-1.9,5.4-3.6,7.6-1.7,2.2-3.9,3.9-6.7,5.1-2.8,1.2-6.3,1.9-10.5,1.9s-6.2-.4-8.5-1.3-4.3-1.9-5.9-3.3c-1.6-1.3-2.8-2.9-3.7-4.6-.9-1.7-1.6-3.5-2.1-5.2-.5-1.8-.8-3.5-.9-5.1-.1-1.7-.2-3.1-.2-4.4v-33.8h3.5Z"/>
      <path class="st1" d="M524,174.8v-3h43.2v3h-19.9v53.3h-3.5v-53.3h-19.8Z"/>
      <path class="st1" d="M571,171.8h3.5v56.3h-3.5v-56.3Z"/>
      <path class="st1" d="M635.5,200c0,4.1-.6,8-1.8,11.6-1.2,3.6-3,6.7-5.2,9.4-2.3,2.7-5.1,4.7-8.4,6.3-3.3,1.5-7.1,2.3-11.3,2.3s-8-.8-11.3-2.3c-3.3-1.5-6.2-3.6-8.4-6.3-2.3-2.7-4-5.8-5.2-9.4-1.2-3.6-1.8-7.5-1.8-11.6s.6-8,1.8-11.6c1.2-3.6,3-6.7,5.2-9.4s5.1-4.7,8.4-6.3c3.3-1.5,7.1-2.3,11.3-2.3s8,.8,11.3,2.3c3.3,1.5,6.1,3.6,8.4,6.3s4,5.8,5.2,9.4c1.2,3.6,1.8,7.5,1.8,11.6ZM585.4,200c0,3.6.5,7,1.6,10.3,1.1,3.2,2.6,6,4.6,8.4,2,2.4,4.4,4.3,7.3,5.7,2.9,1.4,6.2,2.1,9.9,2.1s7-.7,9.8-2.1c2.9-1.4,5.3-3.3,7.3-5.7,2-2.4,3.5-5.2,4.6-8.4,1.1-3.2,1.6-6.6,1.6-10.3s-.5-7-1.6-10.3c-1.1-3.2-2.6-6-4.6-8.4-2-2.4-4.4-4.3-7.3-5.7-2.9-1.4-6.1-2.1-9.8-2.1s-7,.7-9.9,2.1c-2.9,1.4-5.3,3.3-7.3,5.7-2,2.4-3.5,5.2-4.6,8.4-1.1,3.2-1.6,6.6-1.6,10.3Z"/>
      <path class="st1" d="M642.9,171.8h4.3l35.6,51.7h.2v-51.7h3.5v56.3h-4.1l-35.8-52.1h-.2v52.1h-3.5v-56.3Z"/>
      <path class="st1" d="M733.2,187.9c-.1-2.4-.6-4.5-1.5-6.3-.9-1.8-2.2-3.3-3.7-4.5-1.6-1.2-3.5-2.1-5.6-2.7-2.2-.6-4.6-.9-7.1-.9s-3.3.2-5.1.6c-1.8.4-3.5,1-5.1,1.9-1.6.9-2.8,2.2-3.8,3.7-1,1.6-1.5,3.5-1.5,5.8s.6,4.1,1.7,5.5c1.1,1.4,2.6,2.6,4.3,3.4,1.8.9,3.8,1.6,6.2,2.1,2.3.5,4.7,1,7,1.5,2.4.5,4.8,1,7.1,1.7,2.3.7,4.3,1.6,6.2,2.7,1.8,1.1,3.3,2.6,4.4,4.4,1.1,1.8,1.7,4.1,1.7,6.8s-.6,5.4-1.9,7.4c-1.3,2-2.9,3.6-4.8,4.9-1.9,1.3-4.1,2.2-6.4,2.7-2.3.6-4.6.8-6.7.8-3.3,0-6.4-.4-9.3-1.1-2.9-.7-5.4-1.9-7.6-3.5-2.2-1.6-3.9-3.7-5.1-6.2-1.2-2.5-1.8-5.6-1.8-9.2h3.5c-.2,3.1.3,5.7,1.3,7.9,1.1,2.1,2.5,3.9,4.4,5.2,1.9,1.4,4.1,2.4,6.6,3,2.5.6,5.2.9,8,.9s3.5-.2,5.4-.6c1.9-.4,3.7-1.1,5.3-2.1,1.6-1,2.9-2.3,4-3.9,1.1-1.6,1.6-3.7,1.6-6.2s-.6-4.3-1.7-5.8-2.6-2.7-4.4-3.6c-1.8-.9-3.9-1.7-6.2-2.2-2.3-.6-4.6-1.1-7.1-1.5-2.4-.5-4.7-1-7-1.7-2.3-.6-4.4-1.5-6.2-2.6-1.8-1.1-3.2-2.5-4.3-4.2-1.1-1.7-1.7-3.9-1.7-6.6s.6-5,1.7-6.9c1.1-1.9,2.6-3.5,4.4-4.7,1.8-1.2,3.9-2.1,6.1-2.6,2.3-.6,4.5-.8,6.7-.8s5.7.3,8.2,1c2.6.7,4.8,1.7,6.7,3.1,1.9,1.4,3.5,3.2,4.6,5.4,1.2,2.2,1.8,4.9,2,8h-3.5Z"/>
    </g>
  </g>
</svg>
